<svg xmlns="http://www.w3.org/2000/svg" xmlns:xlink="http://www.w3.org/1999/xlink" width="186.813" height="50.4" viewBox="0 0 186.813 50.4"><defs><style>.a{fill:url(#a);}.b{fill:#f2f6fd;}</style><linearGradient id="a" x1="0.146" y1="0.854" x2="0.853" y2="0.147" gradientUnits="objectBoundingBox"><stop offset="0.005" stop-color="#2d9cfd"/><stop offset="1" stop-color="#37dafd"/></linearGradient></defs><g transform="translate(-195.63 -44.314)"><path class="a" d="M238.643,51.7a25.177,25.177,0,1,0,7.389,17.81A25.226,25.226,0,0,0,238.643,51.7ZM219.527,92.057a22.584,22.584,0,0,1,0-45.09v8.546a14.058,14.058,0,0,0,0,28Zm1.3-11.09a11.468,11.468,0,1,1,8.1-3.358A11.456,11.456,0,0,1,220.831,80.967ZM237.245,85a22.588,22.588,0,0,1-15.106,7.052V83.511a14.058,14.058,0,0,0,0-28V46.967A22.583,22.583,0,0,1,237.245,85Z"/><path class="b" d="M356.936,59.577a12.419,12.419,0,0,0-19.4,2.589A12.489,12.489,0,0,0,335.91,68.4a11.648,11.648,0,0,0,3.567,8.6,12,12,0,0,0,8.769,3.556A12.181,12.181,0,0,0,360.5,68.289,11.747,11.747,0,0,0,356.936,59.577ZM356.8,73.358a9.518,9.518,0,0,1-3.613,3.6,9.981,9.981,0,0,1-5.033,1.322,9.806,9.806,0,0,1-9.835-9.89,10.117,10.117,0,0,1,1.3-5.1,9.83,9.83,0,0,1,13.536-3.634,9.693,9.693,0,0,1,4.945,8.623A10.119,10.119,0,0,1,356.8,73.358Z"/><path class="b" d="M382.443,73.355v.068a6.491,6.491,0,0,1-2.306,5.026,8.857,8.857,0,0,1-5.936,1.976,12.219,12.219,0,0,1-4.952-1.005,13.3,13.3,0,0,1-4.1-2.848l1.7-1.642a10.108,10.108,0,0,0,7.361,3.15c3.493,0,5.867-1.876,5.867-4.657v-.068a3.2,3.2,0,0,0-1.152-2.714,12.609,12.609,0,0,0-5.088-1.978,13.722,13.722,0,0,1-5.733-2.21,4.92,4.92,0,0,1-1.865-4.089V62.3a5.213,5.213,0,0,1,.542-2.38,6.023,6.023,0,0,1,1.493-1.977,8.03,8.03,0,0,1,5.19-1.776,12.08,12.08,0,0,1,4.035.738,12.945,12.945,0,0,1,3.393,1.977l-1.492,1.809a9.479,9.479,0,0,0-5.936-2.178,5.467,5.467,0,0,0-3.6,1.206A3.39,3.39,0,0,0,368.6,62.3v.067a2.536,2.536,0,0,0,.983,2.245,11.957,11.957,0,0,0,4.783,1.776c2.884.637,4.817,1.407,6.106,2.479A5.508,5.508,0,0,1,382.443,73.355Z"/><path class="b" d="M328.865,61.588a10.141,10.141,0,0,0-5.312-4.122,24.513,24.513,0,0,0-7.6-.845h-4.845V79.969h7.435a14.86,14.86,0,0,0,6.79-1.267,9.706,9.706,0,0,0,3.934-3.934,12.3,12.3,0,0,0,1.511-6.179A12.513,12.513,0,0,0,328.865,61.588ZM326.9,74.068a7.743,7.743,0,0,1-4.146,3.09,25.235,25.235,0,0,1-6.711.6h-2.7V58.91h1.655a27.52,27.52,0,0,1,7.224.667,8.2,8.2,0,0,1,4.557,3.279,9.96,9.96,0,0,1,1.633,5.767A9.537,9.537,0,0,1,326.9,74.068Z"/><path class="b" d="M260.342,63.277a9.934,9.934,0,0,0-1.31,5.09,9.525,9.525,0,0,0,2.933,7.123,10.166,10.166,0,0,0,7.39,2.857,10.365,10.365,0,0,0,8.2-3.846l1.845,1.4a11.728,11.728,0,0,1-4.356,3.435,13.659,13.659,0,0,1-5.835,1.211,12.147,12.147,0,0,1-9.668-4.078,12.315,12.315,0,0,1-2.966-8.312,11.539,11.539,0,0,1,3.6-8.624,12.4,12.4,0,0,1,9-3.5,13.289,13.289,0,0,1,5.9,1.29,11.578,11.578,0,0,1,4.323,3.634l-1.845,1.411a10.136,10.136,0,0,0-3.656-3.013,10.686,10.686,0,0,0-4.69-1.021,10.337,10.337,0,0,0-5.178,1.344A9.675,9.675,0,0,0,260.342,63.277Z"/><path class="b" d="M302.828,56.621h2.266V70.668a9.846,9.846,0,1,1-19.692,0V56.621h2.256V70.668a7.585,7.585,0,0,0,15.17,0Z"/></g></svg>