<svg xmlns="http://www.w3.org/2000/svg" width="182.856" height="84.932" viewBox="0 0 182.856 84.932">
    <path d="M497.311,288.472A4.144,4.144,0,0,1,493.6,291.2H431a1.982,1.982,0,0,1-2-2.726l2.095-6.7a4.144,4.144,0,0,1,3.709-2.727H497.4a1.982,1.982,0,0,1,2,2.727Z" transform="translate(-336.312 -213.011)" fill="#ff314e"/>
    <path d="M250.352,108.342a2.8,2.8,0,0,0-2.18.227,3.576,3.576,0,0,0-1.708,1.891l-.732,1.965c-2.874,7.741-6.133,16.516-11.691,22.621a1.674,1.674,0,0,1-1.627.541,1,1,0,0,1-.792-.973,21.01,21.01,0,0,1,.814-5.876c.729-2.8,2.189-7.724,3.478-12.067.926-3.12,1.9-7.609,2.362-9.3.668-2.436-.123-3.851-2.645-4.731a2.8,2.8,0,0,0-2.13.192,3.778,3.778,0,0,0-1.8,1.827,194.792,194.792,0,0,0-7.149,20.209,31.422,31.422,0,0,1-3.362,7.262c-4.009,6.416-6.492,9.391-8.1,9.773-.545.13-.779-.015-.922-.157-.973-.961-.574-5.176,1.184-12.526,1.173-4.9,2.587-9.889,3.955-14.716,1-3.539,2.04-7.2,2.972-10.789,1.457-5.609,1.1-8.64-4.895-9.637a3.639,3.639,0,0,0-3.42,1.736c-7.622,11.943-13.3,25.059-18.8,37.743-.843,1.946-1.685,3.889-2.527,5.812,1.31-8.253,3.364-16.595,5.352-24.668,1.165-4.731,2.37-9.623,3.406-14.426,1.123-5.2,1.476-8.562-.044-10.326-1.092-1.267-3.032-1.7-6.489-1.429a3.944,3.944,0,0,0-2.967,2.014c-9.744,18.006-14.016,29.012-20.2,48.1q-.86,2.653-1.722,5.307c1.349-12.363,5.711-35.945,6.353-39.6,1.365-7.763,1.637-16.934-2.364-20.8-1.074-1.038-2.413-1.074-3.96-1.074-6.553,0-16.16,13.011-14.462,15.555,1.636,2.451,5.335-7.631,12.282-7.631,3.058,0,.893,11.732.893,11.732-1.288,7.31-6.777,37.337-8.47,49.2-.5,3.537-.2,5.731.959,6.9.863.871,2.184,1.184,4.04.957a7.055,7.055,0,0,0,5.418-4.694l.034-.1a427.992,427.992,0,0,1,18.7-49.1c.342-.779,1.477-.557,1.3.254-.851,3.853-1.973,8.711-2.65,11.436-1.869,7.521-3.8,15.3-5.188,22.947-1.193,6.584-1.057,9.993.47,11.767a4.646,4.646,0,0,0,3.959,1.355,6.7,6.7,0,0,0,5.457-4.063c5.117-11.987,10.585-24.585,16.783-36.948.42-.837,1.636-.515,1.39.368q-.313,1.123-.627,2.246c-1.887,6.757-3.837,13.744-5.43,20.52-1.99,8.469-1.775,14.161.623,16.461a4.815,4.815,0,0,0,4.764.9,12.354,12.354,0,0,0,5.205-3.181,51.551,51.551,0,0,0,7.507-10.265c-.423,3.745.153,6.519,1.655,7.768a3.063,3.063,0,0,0,3.068.458c6.061-2.1,10.341-8.977,13.637-15.015v0c.435-.8,1.554-.735,1.29.435,0,.012,0,.021,0,.033-.537,2.348-5.555,28.995-9.367,29.168-3.059.139-5.378-6.677-7.218-5.681-2.192,1.187,2.473,11.152,7.263,11.152,5.892,0,8.9-6.827,12.359-18.719,2.891-9.949,8.687-31.914,9.381-34.771C253.934,110.2,253.145,109.325,250.352,108.342Zm84.878,10.213a1.177,1.177,0,0,0-1.333,1.091,10.688,10.688,0,0,1-1.353,3.911,14.288,14.288,0,0,1-2.554,3.384,9.179,9.179,0,0,1-3.352,2.148,6.307,6.307,0,0,1-3.1.228c1.354-4.23,1.542-7.24.557-8.953a3.288,3.288,0,0,0-2.49-1.624c-1.433-.221-3.376.7-4.549,3.949-1.577,4.364.03,7.689,2.247,9.042-2.349,4.352-5.123,5.717-6.963,5.528a2.5,2.5,0,0,1-2.011-1.174c-.807-1.333-.635-3.792.5-7.109,1.693-4.96,5.385-9.919,9.187-12.34a1.357,1.357,0,0,0-1.168-2.436,23.258,23.258,0,0,0-9.192,6.326,17.783,17.783,0,0,1-2.041,1.978c-1.936,1.548-6.725,5.254-7.9,3.939-.536-.789-.365-2.58.511-5.323.154-.481.245-.7.331-.909s.159-.385.275-.743c.693-2.158,1.028-4.058-1.911-5.46a3.624,3.624,0,0,0-4.249.926,66.806,66.806,0,0,0-6.343,8.643c.323-1.136.511-1.792.861-3.01.8-2.785.662-4.005-.579-5.021a6.543,6.543,0,0,0-1.642-.913,2.4,2.4,0,0,0-3.1,1.386c-.3.81-.584,1.626-.871,2.443l-.209.594c-4.557,7.286-10.771,15.838-18.478,17.454a2.284,2.284,0,0,1-2.112-.68c-.7-.686-2.18-2.879-.962-8.426,1.4-6.358,5.673-11.83,7.621-11.9a.456.456,0,0,1,.453.268c.434.828-.1,3.338-1.586,5.787a1.75,1.75,0,0,0-.181,1.67,1.512,1.512,0,0,0,1.794.716,6.386,6.386,0,0,0,2.521-1.331,12.252,12.252,0,0,0,3.588-5.857,4.857,4.857,0,0,0-.782-4.458,4.04,4.04,0,0,0-3.639-1.243c-8.982,1.024-15.566,10.715-17.427,19.759-1.028,5-.3,9.182,2,11.483a6.113,6.113,0,0,0,5.589,1.659c8.113-1.495,14.329-9.2,18.6-15.818-.775,2.535-1.409,7.067-2.024,9.436-.938,3.608.019,5.766,3.013,6.792a2.591,2.591,0,0,0,2.074-.2,2.539,2.539,0,0,0,1.221-1.44c1.989-6.165,4.966-14.6,8.429-19.973.854-1.284,1.34-.59,1.141.317a.227.227,0,0,0,0,.034c-.648,2.587-.459,4.754.576,6.289a5.247,5.247,0,0,0,4.216,2.217c1.771.1,3.708-.686,5.782-2.319-.245.607-.464,1.209-.655,1.8-1.415,4.356-1.351,8.088.18,10.51a6.25,6.25,0,0,0,4.993,2.874c.177.015.358.022.54.022,4.043,0,9.459-3.585,13.018-11.83a10.01,10.01,0,0,0,5.515-.59,12.223,12.223,0,0,0,4.338-3.172,16.748,16.748,0,0,0,2.765-4.242,12.638,12.638,0,0,0,1.3-4.978A1.113,1.113,0,0,0,335.231,118.555Z" transform="translate(-153.345 -82.474)" fill="#262a31"/>
    <g transform="translate(104.84 69.009)">
        <path d="M472.776,287.9l-2.013,6.269h-1.406l.837-2.606h-2.516l-.837,2.606h-1.406l2.013-6.269h1.406l-.771,2.4H470.6l.771-2.4Z" transform="translate(-465.435 -287.903)" fill="#fff"/>
        <path d="M492.147,291.691l1.216-3.788h1.406l-1.211,3.77c-.224.7-.166,1.325.819,1.325a1.668,1.668,0,0,0,1.679-1.325l1.211-3.77h1.415l-1.216,3.788a3.582,3.582,0,0,1-3.491,2.561C492.507,294.252,491.6,293.4,492.147,291.691Z" transform="translate(-483.066 -287.903)" fill="#fff"/>
        <path d="M516.741,287.9H518.4l1,4.093h.036l1.315-4.093h1.4l-2.013,6.269h-1.666l-1.005-4.066h-.036l-1.305,4.066h-1.388Z" transform="translate(-498.169 -287.903)" fill="#fff"/>
        <path d="M544.995,289.165h-1.809l.405-1.262h5.033l-.406,1.262H546.41l-1.607,5.006h-1.415Z" transform="translate(-517.067 -287.903)" fill="#fff"/>
        <path d="M562.994,287.9h4.478l-.4,1.254H564l-.371,1.155h2.794l-.4,1.254h-2.794l-.437,1.362h3.072l-.4,1.245h-4.477Z" transform="translate(-528.885 -287.903)" fill="#fff"/>
        <path d="M587.887,294.082l-.029.089H586.21l-.642-2.212h-.877l-.71,2.212h-1.406l2.013-6.269h2.866a1.42,1.42,0,0,1,1.5,2,2.966,2.966,0,0,1-1.842,1.889Zm-2.794-3.376h1.388a1.076,1.076,0,0,0,1.026-.8c.121-.376.018-.752-.529-.752h-1.388Z" transform="translate(-543.225 -287.903)" fill="#fff"/>
    </g>
</svg>