<svg width="16" height="16" viewBox="0 0 16 16" fill="none" xmlns="http://www.w3.org/2000/svg">
<path d="M8.00001 1.33337C6.68147 1.33337 5.39254 1.72437 4.29621 2.45691C3.19988 3.18945 2.3454 4.23064 1.84082 5.44882C1.33623 6.66699 1.20421 8.00744 1.46144 9.30064C1.71868 10.5938 2.35362 11.7817 3.28597 12.7141C4.21832 13.6464 5.4062 14.2814 6.69941 14.5386C7.99262 14.7958 9.33306 14.6638 10.5512 14.1592C11.7694 13.6547 12.8106 12.8002 13.5431 11.7038C14.2757 10.6075 14.6667 9.31858 14.6667 8.00004C14.6647 6.23253 13.9617 4.53798 12.7119 3.28817C11.4621 2.03835 9.76752 1.33534 8.00001 1.33337ZM8.00001 13.3334C6.94518 13.3334 5.91403 13.0206 5.03697 12.4345C4.15991 11.8485 3.47632 11.0156 3.07266 10.041C2.66899 9.06648 2.56337 7.99412 2.76916 6.95956C2.97495 5.92499 3.4829 4.97468 4.22878 4.2288C4.97466 3.48292 5.92497 2.97497 6.95953 2.76919C7.9941 2.5634 9.06645 2.66902 10.041 3.07268C11.0155 3.47635 11.8485 4.15994 12.4345 5.037C13.0206 5.91406 13.3333 6.94521 13.3333 8.00004C13.3317 9.41403 12.7693 10.7696 11.7695 11.7695C10.7696 12.7693 9.41401 13.3318 8.00001 13.3334ZM8.00001 7.66671C7.8232 7.66671 7.65363 7.73695 7.52861 7.86197C7.40358 7.98699 7.33335 8.15656 7.33335 8.33337V10.3334C7.33335 10.5102 7.40358 10.6798 7.52861 10.8048C7.65363 10.9298 7.8232 11 8.00001 11C8.17682 11 8.34639 10.9298 8.47142 10.8048C8.59644 10.6798 8.66668 10.5102 8.66668 10.3334V8.33337C8.66668 8.15656 8.59644 7.98699 8.47142 7.86197C8.34639 7.73695 8.17682 7.66671 8.00001 7.66671ZM8.00001 5.00004C7.8352 5.00004 7.67408 5.04891 7.53704 5.14048C7.4 5.23205 7.29319 5.3622 7.23011 5.51447C7.16704 5.66674 7.15054 5.8343 7.18269 5.99595C7.21485 6.1576 7.29421 6.30609 7.41076 6.42263C7.5273 6.53917 7.67579 6.61854 7.83744 6.65069C7.99909 6.68285 8.16664 6.66635 8.31892 6.60327C8.47119 6.5402 8.60134 6.43339 8.6929 6.29635C8.78447 6.15931 8.83335 5.99819 8.83335 5.83337C8.83335 5.61236 8.74555 5.4004 8.58927 5.24412C8.43299 5.08784 8.22103 5.00004 8.00001 5.00004Z" fill="#4E94EE"/>
</svg>
