<svg width="1053" height="533" viewBox="0 0 1053 533" fill="none" xmlns="http://www.w3.org/2000/svg">
<g opacity="0.3">
<path d="M969.804 236.123C959.654 225.99 946.304 219.689 932.03 218.294C917.755 216.899 903.438 220.496 891.519 228.473C879.599 236.45 870.813 248.312 866.658 262.04C862.504 275.768 863.237 290.511 868.733 303.759C874.229 317.007 884.148 327.939 896.801 334.694C909.453 341.449 924.056 343.608 938.122 340.803C952.188 337.999 964.846 330.405 973.941 319.315C983.036 308.224 988.004 294.324 988 279.981C987.982 263.529 981.438 247.756 969.804 236.123V236.123ZM922.73 335.505C908.57 334.671 895.264 328.459 885.533 318.139C875.802 307.819 870.382 294.171 870.382 279.986C870.382 265.802 875.802 252.154 885.533 241.833C895.264 231.513 908.57 225.301 922.73 224.468V245.513C914.128 246.297 906.129 250.268 900.305 256.647C894.481 263.025 891.252 271.351 891.252 279.989C891.252 288.626 894.481 296.952 900.305 303.331C906.129 309.71 914.128 313.681 922.73 314.465V335.505ZM925.931 308.195C919.396 308.2 913.062 305.938 908.009 301.795C902.955 297.653 899.494 291.886 898.216 285.478C896.938 279.069 897.921 272.416 900.999 266.652C904.077 260.887 909.059 256.369 915.096 253.866C921.132 251.364 927.85 251.032 934.103 252.928C940.357 254.824 945.76 258.829 949.391 264.262C953.022 269.695 954.656 276.219 954.016 282.722C953.375 289.226 950.499 295.305 945.878 299.926C940.591 305.216 933.42 308.19 925.941 308.195H925.931ZM966.361 318.126C956.629 328.446 943.322 334.659 929.162 335.492V314.46C937.764 313.676 945.762 309.705 951.586 303.326C957.41 296.947 960.639 288.621 960.639 279.984C960.639 271.346 957.41 263.02 951.586 256.642C945.762 250.263 937.764 246.292 929.162 245.508V224.468C939.724 225.09 949.89 228.712 958.465 234.91C967.041 241.107 973.67 249.622 977.576 259.455C981.482 269.289 982.501 280.032 980.515 290.424C978.528 300.817 973.618 310.427 966.361 318.126Z" fill="url(#paint0_linear_1289_25)"/>
</g>
<g opacity="0.5">
<path d="M359.85 474.318C371.48 485.93 386.777 493.149 403.133 494.748C419.49 496.346 435.894 492.224 449.553 483.084C463.211 473.944 473.278 460.351 478.038 444.622C482.799 428.892 481.959 411.998 475.661 396.818C469.363 381.639 457.998 369.112 443.5 361.372C429.002 353.632 412.269 351.158 396.152 354.371C380.035 357.584 365.531 366.286 355.109 378.994C344.688 391.702 338.995 407.629 339 424.064C339.021 442.915 346.519 460.989 359.85 474.318V474.318ZM413.79 360.443C430.015 361.398 445.261 368.516 456.411 380.341C467.561 392.166 473.772 407.805 473.772 424.058C473.772 440.311 467.561 455.95 456.411 467.775C445.261 479.601 430.015 486.719 413.79 487.674L413.79 463.559C423.646 462.661 432.811 458.111 439.484 450.802C446.158 443.493 449.858 433.953 449.858 424.055C449.858 414.158 446.158 404.618 439.484 397.309C432.811 390 423.646 385.45 413.79 384.551L413.79 360.443ZM410.121 391.736C417.609 391.73 424.867 394.322 430.658 399.068C436.449 403.815 440.414 410.423 441.879 417.766C443.343 425.109 442.216 432.732 438.689 439.337C435.162 445.942 429.454 451.12 422.537 453.987C415.62 456.855 407.923 457.235 400.757 455.063C393.592 452.891 387.401 448.301 383.24 442.075C379.08 435.85 377.207 428.374 377.941 420.923C378.675 413.471 381.97 406.505 387.265 401.211C393.323 395.149 401.54 391.741 410.11 391.736L410.121 391.736ZM363.795 380.356C374.946 368.53 390.194 361.412 406.419 360.457L406.419 384.557C396.563 385.455 387.398 390.006 380.725 397.315C374.051 404.624 370.351 414.164 370.351 424.061C370.351 433.958 374.051 443.498 380.725 450.807C387.398 458.116 396.563 462.667 406.419 463.565L406.419 487.674C394.317 486.961 382.669 482.81 372.842 475.709C363.016 468.608 355.42 458.851 350.944 447.583C346.469 436.316 345.301 424.006 347.577 412.098C349.853 400.19 355.479 389.178 363.795 380.356Z" fill="url(#paint1_linear_1289_25)"/>
</g>
<g opacity="0.5">
<path d="M929.581 371.377C923.77 365.575 916.126 361.967 907.953 361.168C899.779 360.37 891.582 362.429 884.757 366.997C877.932 371.564 872.901 378.356 870.522 386.216C868.143 394.077 868.563 402.519 871.71 410.104C874.857 417.689 880.537 423.949 887.781 427.817C895.026 431.684 903.387 432.921 911.441 431.315C919.495 429.709 926.743 425.361 931.95 419.011C937.158 412.661 940.002 404.702 940 396.489C939.99 387.069 936.243 378.038 929.581 371.377V371.377ZM902.627 428.281C894.52 427.804 886.901 424.247 881.329 418.338C875.758 412.429 872.654 404.614 872.654 396.492C872.654 388.37 875.758 380.556 881.329 374.646C886.901 368.737 894.52 365.18 902.627 364.703V376.753C897.702 377.202 893.123 379.476 889.788 383.128C886.453 386.781 884.604 391.548 884.604 396.493C884.604 401.439 886.453 406.206 889.788 409.859C893.123 413.511 897.702 415.785 902.627 416.234V428.281ZM904.461 412.644C900.719 412.647 897.092 411.352 894.198 408.98C891.305 406.608 889.323 403.306 888.591 399.636C887.859 395.967 888.423 392.158 890.185 388.857C891.948 385.557 894.8 382.969 898.256 381.536C901.713 380.104 905.559 379.914 909.14 380.999C912.721 382.084 915.814 384.378 917.893 387.489C919.972 390.6 920.908 394.335 920.541 398.059C920.174 401.782 918.528 405.264 915.882 407.909C912.855 410.938 908.749 412.641 904.466 412.644H904.461ZM927.61 418.33C922.038 424.24 914.419 427.797 906.31 428.274V416.231C911.236 415.782 915.815 413.508 919.15 409.856C922.485 406.203 924.334 401.436 924.334 396.491C924.334 391.545 922.485 386.778 919.15 383.125C915.815 379.473 911.236 377.199 906.31 376.75V364.703C912.358 365.06 918.179 367.134 923.089 370.682C927.999 374.231 931.795 379.106 934.031 384.737C936.268 390.367 936.851 396.518 935.714 402.469C934.577 408.419 931.765 413.922 927.61 418.33Z" fill="url(#paint2_linear_1289_25)"/>
</g>
<g opacity="0.3">
<path d="M403.646 316.306C408.468 321.121 414.811 324.115 421.594 324.777C428.376 325.44 435.178 323.731 440.842 319.941C446.505 316.151 450.68 310.515 452.654 303.992C454.628 297.47 454.28 290.464 451.668 284.17C449.057 277.875 444.344 272.681 438.332 269.472C432.32 266.262 425.382 265.236 418.699 266.569C412.016 267.901 406.001 271.509 401.68 276.779C397.359 282.048 394.998 288.653 395 295.468C395.009 303.285 398.118 310.779 403.646 316.306V316.306ZM426.012 269.086C432.74 269.482 439.063 272.434 443.686 277.337C448.309 282.241 450.885 288.726 450.885 295.465C450.885 302.205 448.309 308.69 443.686 313.593C439.063 318.497 432.74 321.448 426.012 321.844L426.012 311.845C430.099 311.472 433.9 309.586 436.667 306.555C439.434 303.524 440.968 299.568 440.968 295.464C440.968 291.36 439.434 287.404 436.667 284.373C433.9 281.343 430.099 279.456 426.012 279.083L426.012 269.086ZM424.491 282.062C427.596 282.06 430.606 283.135 433.007 285.103C435.408 287.071 437.053 289.811 437.66 292.856C438.267 295.901 437.8 299.062 436.337 301.801C434.875 304.54 432.508 306.687 429.64 307.876C426.771 309.065 423.58 309.222 420.608 308.322C417.637 307.421 415.07 305.518 413.345 302.936C411.62 300.355 410.843 297.255 411.147 294.165C411.452 291.075 412.818 288.186 415.014 285.991C417.526 283.478 420.933 282.064 424.487 282.062L424.491 282.062ZM405.281 277.343C409.905 272.44 416.228 269.488 422.956 269.092L422.956 279.086C418.869 279.458 415.069 281.345 412.302 284.376C409.534 287.406 408 291.362 408 295.466C408 299.57 409.534 303.526 412.302 306.557C415.069 309.588 418.869 311.475 422.956 311.847L422.956 321.844C417.938 321.548 413.108 319.827 409.033 316.883C404.959 313.938 401.809 309.892 399.953 305.22C398.097 300.548 397.613 295.443 398.557 290.506C399.5 285.568 401.833 281.002 405.281 277.343Z" fill="url(#paint3_linear_1289_25)"/>
</g>
<g opacity="0.15">
<path d="M1041.99 340.961C1035.86 334.832 1027.78 331.022 1019.15 330.178C1010.51 329.334 1001.85 331.51 994.644 336.335C987.435 341.159 982.121 348.334 979.608 356.637C977.095 364.94 977.538 373.858 980.863 381.87C984.187 389.883 990.187 396.495 997.839 400.581C1005.49 404.666 1014.32 405.972 1022.83 404.276C1031.34 402.58 1039 397.987 1044.5 391.279C1050 384.571 1053 376.164 1053 367.489C1052.99 357.538 1049.03 347.998 1041.99 340.961V340.961ZM1013.52 401.071C1004.96 400.567 996.909 396.81 991.024 390.568C985.138 384.326 981.86 376.071 981.86 367.492C981.86 358.912 985.138 350.657 991.024 344.415C996.909 338.173 1004.96 334.416 1013.52 333.912V346.641C1008.32 347.115 1003.48 349.517 999.959 353.375C996.436 357.233 994.483 362.269 994.483 367.493C994.483 372.717 996.436 377.753 999.959 381.611C1003.48 385.469 1008.32 387.871 1013.52 388.345V401.071ZM1015.46 384.553C1011.51 384.556 1007.67 383.188 1004.62 380.683C1001.56 378.177 999.468 374.689 998.695 370.813C997.922 366.937 998.517 362.913 1000.38 359.426C1002.24 355.94 1005.25 353.207 1008.9 351.693C1012.56 350.18 1016.62 349.979 1020.4 351.126C1024.18 352.272 1027.45 354.695 1029.65 357.981C1031.84 361.267 1032.83 365.213 1032.44 369.147C1032.06 373.08 1030.32 376.757 1027.52 379.552C1024.33 382.751 1019.99 384.55 1015.46 384.553H1015.46ZM1039.91 390.56C1034.03 396.802 1025.98 400.56 1017.41 401.064V388.342C1022.62 387.868 1027.45 385.466 1030.98 381.608C1034.5 377.75 1036.45 372.714 1036.45 367.49C1036.45 362.266 1034.5 357.23 1030.98 353.372C1027.45 349.514 1022.62 347.112 1017.41 346.638V333.912C1023.8 334.288 1029.95 336.479 1035.14 340.228C1040.32 343.976 1044.33 349.126 1046.7 355.074C1049.06 361.021 1049.67 367.519 1048.47 373.805C1047.27 380.091 1044.3 385.903 1039.91 390.56Z" fill="url(#paint4_linear_1289_25)"/>
</g>
<g opacity="0.15">
<path d="M294.006 337.039C300.145 343.168 308.219 346.978 316.853 347.822C325.487 348.666 334.146 346.49 341.356 341.665C348.565 336.841 353.879 329.666 356.392 321.363C358.905 313.06 358.462 304.142 355.137 296.13C351.813 288.117 345.813 281.505 338.161 277.419C330.508 273.334 321.676 272.028 313.168 273.724C304.661 275.42 297.004 280.013 291.503 286.721C286.003 293.429 282.997 301.836 283 310.511C283.011 320.462 286.969 330.002 294.006 337.039V337.039ZM322.478 276.929C331.042 277.433 339.091 281.19 344.976 287.432C350.862 293.674 354.14 301.929 354.14 310.508C354.14 319.088 350.862 327.343 344.976 333.585C339.091 339.827 331.042 343.584 322.478 344.088L322.478 331.359C327.681 330.885 332.518 328.483 336.041 324.625C339.564 320.767 341.517 315.731 341.517 310.507C341.517 305.283 339.564 300.247 336.041 296.389C332.518 292.531 327.681 290.129 322.478 289.655L322.478 276.929ZM320.542 293.447C324.494 293.444 328.325 294.812 331.382 297.317C334.439 299.823 336.532 303.311 337.305 307.187C338.078 311.063 337.483 315.087 335.621 318.574C333.76 322.06 330.746 324.793 327.095 326.307C323.444 327.82 319.381 328.021 315.599 326.874C311.816 325.728 308.549 323.305 306.352 320.019C304.156 316.733 303.168 312.787 303.555 308.853C303.943 304.92 305.682 301.243 308.477 298.448C311.675 295.249 316.012 293.45 320.536 293.447L320.542 293.447ZM296.088 287.44C301.974 281.198 310.023 277.44 318.588 276.936L318.588 289.658C313.385 290.132 308.547 292.534 305.025 296.392C301.502 300.25 299.549 305.286 299.549 310.51C299.549 315.734 301.502 320.77 305.025 324.628C308.547 328.486 313.385 330.888 318.588 331.362L318.588 344.088C312.199 343.712 306.051 341.521 300.864 337.772C295.677 334.024 291.667 328.874 289.305 322.926C286.943 316.979 286.326 310.481 287.528 304.195C288.729 297.909 291.699 292.097 296.088 287.44Z" fill="url(#paint5_linear_1289_25)"/>
</g>
<g opacity="0.2">
<g filter="url(#filter0_f_1289_25)">
<circle r="5.37616" transform="matrix(-1 0 0 1 428.376 14.3762)" fill="white"/>
</g>
<g filter="url(#filter1_f_1289_25)">
<circle r="4.18146" transform="matrix(-1 0 0 1 428.376 14.3762)" fill="white"/>
</g>
<g filter="url(#filter2_f_1289_25)">
<circle r="5.37616" transform="matrix(-1 0 0 1 90.9974 385.142)" fill="white"/>
</g>
<g filter="url(#filter3_f_1289_25)">
<circle r="4.18146" transform="matrix(-1 0 0 1 64.1813 431.181)" fill="white"/>
</g>
<g filter="url(#filter4_f_1289_25)">
<circle r="2.98675" transform="matrix(-1 0 0 1 12.147 131.865)" fill="white"/>
</g>
<g filter="url(#filter5_f_1289_25)">
<circle r="2.32303" transform="matrix(-1 0 0 1 12.1472 131.865)" fill="white"/>
</g>
<g filter="url(#filter6_f_1289_25)">
<circle r="2.98675" transform="matrix(-1 0 0 1 1036.01 17.1735)" fill="white"/>
</g>
<g filter="url(#filter7_f_1289_25)">
<circle r="2.32303" transform="matrix(-1 0 0 1 1036.01 17.1735)" fill="white"/>
</g>
<g filter="url(#filter8_f_1289_25)">
<circle r="5.37616" transform="matrix(-1 0 0 1 251.087 517.754)" fill="white"/>
</g>
<g filter="url(#filter9_f_1289_25)">
<circle r="4.18146" transform="matrix(-1 0 0 1 251.087 517.754)" fill="white"/>
</g>
</g>
<defs>
<filter id="filter0_f_1289_25" x="414" y="0" width="28.7524" height="28.7523" filterUnits="userSpaceOnUse" color-interpolation-filters="sRGB">
<feFlood flood-opacity="0" result="BackgroundImageFix"/>
<feBlend mode="normal" in="SourceGraphic" in2="BackgroundImageFix" result="shape"/>
<feGaussianBlur stdDeviation="4.5" result="effect1_foregroundBlur_1289_25"/>
</filter>
<filter id="filter1_f_1289_25" x="422.194" y="8.1947" width="12.3628" height="12.3629" filterUnits="userSpaceOnUse" color-interpolation-filters="sRGB">
<feFlood flood-opacity="0" result="BackgroundImageFix"/>
<feBlend mode="normal" in="SourceGraphic" in2="BackgroundImageFix" result="shape"/>
<feGaussianBlur stdDeviation="1" result="effect1_foregroundBlur_1289_25"/>
</filter>
<filter id="filter2_f_1289_25" x="76.6211" y="370.766" width="28.7524" height="28.7523" filterUnits="userSpaceOnUse" color-interpolation-filters="sRGB">
<feFlood flood-opacity="0" result="BackgroundImageFix"/>
<feBlend mode="normal" in="SourceGraphic" in2="BackgroundImageFix" result="shape"/>
<feGaussianBlur stdDeviation="4.5" result="effect1_foregroundBlur_1289_25"/>
</filter>
<filter id="filter3_f_1289_25" x="58" y="425" width="12.3628" height="12.3629" filterUnits="userSpaceOnUse" color-interpolation-filters="sRGB">
<feFlood flood-opacity="0" result="BackgroundImageFix"/>
<feBlend mode="normal" in="SourceGraphic" in2="BackgroundImageFix" result="shape"/>
<feGaussianBlur stdDeviation="1" result="effect1_foregroundBlur_1289_25"/>
</filter>
<filter id="filter4_f_1289_25" x="0.160156" y="119.878" width="23.9736" height="23.9735" filterUnits="userSpaceOnUse" color-interpolation-filters="sRGB">
<feFlood flood-opacity="0" result="BackgroundImageFix"/>
<feBlend mode="normal" in="SourceGraphic" in2="BackgroundImageFix" result="shape"/>
<feGaussianBlur stdDeviation="4.5" result="effect1_foregroundBlur_1289_25"/>
</filter>
<filter id="filter5_f_1289_25" x="7.82422" y="127.542" width="8.646" height="8.64612" filterUnits="userSpaceOnUse" color-interpolation-filters="sRGB">
<feFlood flood-opacity="0" result="BackgroundImageFix"/>
<feBlend mode="normal" in="SourceGraphic" in2="BackgroundImageFix" result="shape"/>
<feGaussianBlur stdDeviation="1" result="effect1_foregroundBlur_1289_25"/>
</filter>
<filter id="filter6_f_1289_25" x="1024.02" y="5.18677" width="23.9736" height="23.9735" filterUnits="userSpaceOnUse" color-interpolation-filters="sRGB">
<feFlood flood-opacity="0" result="BackgroundImageFix"/>
<feBlend mode="normal" in="SourceGraphic" in2="BackgroundImageFix" result="shape"/>
<feGaussianBlur stdDeviation="4.5" result="effect1_foregroundBlur_1289_25"/>
</filter>
<filter id="filter7_f_1289_25" x="1031.68" y="12.8505" width="8.646" height="8.64612" filterUnits="userSpaceOnUse" color-interpolation-filters="sRGB">
<feFlood flood-opacity="0" result="BackgroundImageFix"/>
<feBlend mode="normal" in="SourceGraphic" in2="BackgroundImageFix" result="shape"/>
<feGaussianBlur stdDeviation="1" result="effect1_foregroundBlur_1289_25"/>
</filter>
<filter id="filter8_f_1289_25" x="236.711" y="503.377" width="28.7524" height="28.7523" filterUnits="userSpaceOnUse" color-interpolation-filters="sRGB">
<feFlood flood-opacity="0" result="BackgroundImageFix"/>
<feBlend mode="normal" in="SourceGraphic" in2="BackgroundImageFix" result="shape"/>
<feGaussianBlur stdDeviation="4.5" result="effect1_foregroundBlur_1289_25"/>
</filter>
<filter id="filter9_f_1289_25" x="244.906" y="511.572" width="12.3628" height="12.3629" filterUnits="userSpaceOnUse" color-interpolation-filters="sRGB">
<feFlood flood-opacity="0" result="BackgroundImageFix"/>
<feBlend mode="normal" in="SourceGraphic" in2="BackgroundImageFix" result="shape"/>
<feGaussianBlur stdDeviation="1" result="effect1_foregroundBlur_1289_25"/>
</filter>
<linearGradient id="paint0_linear_1289_25" x1="882.104" y1="323.896" x2="969.772" y2="236.228" gradientUnits="userSpaceOnUse">
<stop offset="0.005" stop-color="#2D9CFD"/>
<stop offset="1" stop-color="#37DAFD"/>
</linearGradient>
<linearGradient id="paint1_linear_1289_25" x1="460.34" y1="373.744" x2="359.886" y2="474.198" gradientUnits="userSpaceOnUse">
<stop offset="0.005" stop-color="#2D9CFD"/>
<stop offset="1" stop-color="#37DAFD"/>
</linearGradient>
<linearGradient id="paint2_linear_1289_25" x1="879.366" y1="421.634" x2="929.563" y2="371.437" gradientUnits="userSpaceOnUse">
<stop offset="0.005" stop-color="#2D9CFD"/>
<stop offset="1" stop-color="#37DAFD"/>
</linearGradient>
<linearGradient id="paint3_linear_1289_25" x1="445.315" y1="274.602" x2="403.661" y2="316.256" gradientUnits="userSpaceOnUse">
<stop offset="0.005" stop-color="#2D9CFD"/>
<stop offset="1" stop-color="#37DAFD"/>
</linearGradient>
<linearGradient id="paint4_linear_1289_25" x1="988.95" y1="394.05" x2="1041.97" y2="341.025" gradientUnits="userSpaceOnUse">
<stop offset="0.005" stop-color="#2D9CFD"/>
<stop offset="1" stop-color="#37DAFD"/>
</linearGradient>
<linearGradient id="paint5_linear_1289_25" x1="347.05" y1="283.95" x2="294.025" y2="336.975" gradientUnits="userSpaceOnUse">
<stop offset="0.005" stop-color="#2D9CFD"/>
<stop offset="1" stop-color="#37DAFD"/>
</linearGradient>
</defs>
</svg>
