<svg width="24" height="24" viewBox="0 0 24 24" fill="none" xmlns="http://www.w3.org/2000/svg">
<path d="M6.99979 18C6.80204 17.9999 6.60874 17.9412 6.44433 17.8314C6.27992 17.7215 6.15178 17.5653 6.07611 17.3826C6.00044 17.1999 5.98064 16.9989 6.0192 16.8049C6.05777 16.611 6.15298 16.4328 6.29279 16.293L16.2928 6.29296C16.4809 6.10825 16.7343 6.00529 16.9979 6.00648C17.2615 6.00767 17.514 6.11292 17.7004 6.29933C17.8868 6.48574 17.9921 6.73822 17.9933 7.00183C17.9945 7.26545 17.8915 7.51887 17.7068 7.70696L7.70679 17.707C7.61406 17.8 7.50386 17.8737 7.38253 17.924C7.2612 17.9743 7.13112 18.0001 6.99979 18Z" fill="#F6F9FE"/>
<path d="M16.9998 18C16.8685 18.0001 16.7384 17.9743 16.6171 17.924C16.4958 17.8737 16.3856 17.8 16.2928 17.707L6.29283 7.70696C6.10812 7.51887 6.00516 7.26545 6.00636 7.00183C6.00755 6.73822 6.1128 6.48574 6.29921 6.29933C6.48561 6.11292 6.73809 6.00767 7.00171 6.00648C7.26533 6.00529 7.51875 6.10825 7.70683 6.29296L17.7068 16.293C17.8466 16.4328 17.9418 16.611 17.9804 16.8049C18.019 16.9989 17.9992 17.1999 17.9235 17.3826C17.8478 17.5653 17.7197 17.7215 17.5553 17.8314C17.3909 17.9412 17.1976 17.9999 16.9998 18Z" fill="#F6F9FE"/>
</svg>
