<svg width="41" height="41" viewBox="0 0 41 41" fill="none" xmlns="http://www.w3.org/2000/svg">
<path d="M34.3204 5.84647C31.0459 2.57746 26.7394 0.544834 22.1344 0.0948456C17.5294 -0.355143 12.9108 0.805346 9.06547 3.37862C5.22013 5.95189 2.38587 9.77877 1.04556 14.2073C-0.294759 18.6358 -0.0582296 23.3921 1.71485 27.6658C3.48792 31.9395 6.68786 35.4663 10.7695 37.6454C14.8512 39.8245 19.5621 40.521 24.0998 39.6164C28.6374 38.7117 32.721 36.2618 35.655 32.6841C38.5889 29.1063 40.1917 24.6221 40.1903 19.9951C40.1845 14.6877 38.0734 9.5993 34.3204 5.84647V5.84647ZM19.1342 37.907C14.5662 37.6382 10.2736 35.6341 7.13444 32.3048C3.99529 28.9755 2.24688 24.5726 2.24688 19.9967C2.24688 15.4209 3.99529 11.0179 7.13444 7.68861C10.2736 4.3593 14.5662 2.35527 19.1342 2.08647V8.8756C16.3592 9.12846 13.7789 10.4096 11.9001 12.4674C10.0213 14.5252 8.97961 17.211 8.97961 19.9975C8.97961 22.784 10.0213 25.4698 11.9001 27.5277C13.7789 29.5855 16.3592 30.8666 19.1342 31.1194V37.907ZM20.1669 29.0968C18.0589 29.0983 16.0155 28.3687 14.3851 27.0324C12.7547 25.696 11.6383 23.8356 11.2259 21.7683C10.8136 19.7009 11.131 17.5546 12.124 15.695C13.117 13.8355 14.7241 12.3778 16.6714 11.5705C18.6188 10.7632 20.7859 10.6562 22.8033 11.2677C24.8207 11.8793 26.5636 13.1715 27.735 14.9242C28.9063 16.6769 29.4336 18.7815 29.227 20.8794C29.0203 22.9774 28.0925 24.9387 26.6017 26.4292C24.8962 28.1358 22.5828 29.0953 20.1701 29.0968H20.1669ZM33.2097 32.3007C30.0702 35.63 25.7774 37.634 21.2092 37.903V31.1178C23.9842 30.865 26.5644 29.5839 28.4433 27.5261C30.3221 25.4683 31.3638 22.7824 31.3638 19.9959C31.3638 17.2094 30.3221 14.5236 28.4433 12.4658C26.5644 10.408 23.9842 9.12687 21.2092 8.87401V2.08647C24.6166 2.2872 27.896 3.45579 30.6624 5.45504C33.4289 7.4543 35.5676 10.2013 36.8276 13.3735C38.0875 16.5457 38.4164 20.0115 37.7755 23.3641C37.1347 26.7166 35.5508 29.8168 33.2097 32.3007Z" fill="url(#paint0_linear_332_681)"/>
<defs>
<linearGradient id="paint0_linear_332_681" x1="6.02833" y1="34.1621" x2="34.31" y2="5.88039" gradientUnits="userSpaceOnUse">
<stop offset="0.005" stop-color="#2D9CFD"/>
<stop offset="1" stop-color="#37DAFD"/>
</linearGradient>
</defs>
</svg>
