<svg width="18" height="18" viewBox="0 0 18 18" fill="none" xmlns="http://www.w3.org/2000/svg">
<path d="M15.3567 15.3696C13.8834 16.8404 11.9459 17.7549 9.874 17.9573C7.80215 18.1598 5.72419 17.6377 3.99411 16.4799C2.26403 15.3222 0.988861 13.6004 0.385833 11.6079C-0.217195 9.61546 -0.110777 7.47555 0.686955 5.55274C1.48469 3.62994 2.92439 2.04318 4.76079 1.06279C6.5972 0.0823917 8.71671 -0.230993 10.7583 0.17602C12.7998 0.583033 14.6371 1.68527 15.9571 3.29495C17.2771 4.90463 17.9983 6.92218 17.9976 9.0039C17.995 11.3918 17.0452 13.6811 15.3567 15.3696ZM8.52417 0.945097C6.46897 1.06604 4.53766 1.96768 3.12531 3.46558C1.71296 4.96349 0.926324 6.94443 0.926324 9.00318C0.926324 11.0619 1.71296 13.0429 3.12531 14.5408C4.53766 16.0387 6.46897 16.9403 8.52417 17.0613V14.0067C7.27565 13.893 6.11477 13.3166 5.26946 12.3907C4.42415 11.4649 3.95548 10.2565 3.95548 9.00283C3.95548 7.74914 4.42415 6.54074 5.26946 5.61491C6.11477 4.68907 7.27565 4.11268 8.52417 3.99891V0.945097ZM8.98882 4.90891C8.04036 4.90823 7.12103 5.23649 6.3875 5.83773C5.65396 6.43897 5.15164 7.27599 4.96614 8.20612C4.78063 9.13626 4.92342 10.1019 5.37018 10.9386C5.81693 11.7752 6.54 12.431 7.41615 12.7943C8.29229 13.1575 9.26729 13.2056 10.175 12.9305C11.0826 12.6553 11.8668 12.074 12.3938 11.2854C12.9208 10.4968 13.158 9.54992 13.0651 8.60603C12.9721 7.66215 12.5547 6.77972 11.8839 6.10913C11.1166 5.3413 10.0758 4.90959 8.99024 4.90891H8.98882ZM14.857 3.46743C13.4445 1.96954 11.5131 1.06789 9.45776 0.946884V3.99963C10.7063 4.11339 11.8672 4.68978 12.7125 5.61562C13.5578 6.54146 14.0264 7.74986 14.0264 9.00354C14.0264 10.2572 13.5578 11.4656 12.7125 12.3915C11.8672 13.3173 10.7063 13.8937 9.45776 14.0075V17.0613C10.9908 16.971 12.4662 16.4452 13.7109 15.5457C14.9556 14.6462 15.9178 13.4103 16.4847 11.9831C17.0515 10.5559 17.1995 8.99654 16.9112 7.48817C16.6229 5.97979 15.9103 4.58497 14.857 3.46743Z" fill="url(#paint0_linear_332_1347)"/>
<defs>
<linearGradient id="paint0_linear_332_1347" x1="2.62766" y1="2.62999" x2="15.352" y2="15.3543" gradientUnits="userSpaceOnUse">
<stop offset="0.005" stop-color="#2D9CFD"/>
<stop offset="1" stop-color="#37DAFD"/>
</linearGradient>
</defs>
</svg>
