<svg width="22" height="22" viewBox="0 0 22 22" fill="none" xmlns="http://www.w3.org/2000/svg">
<path d="M18.7717 18.7846C16.9709 20.5825 14.6024 21.7004 12.0698 21.9478C9.5372 22.1953 6.99714 21.5571 4.88233 20.1419C2.76751 18.7267 1.20877 16.622 0.471635 14.1865C-0.265495 11.7509 -0.135412 9.13512 0.839722 6.78471C1.81486 4.43431 3.57472 2.4947 5.81951 1.29628C8.0643 0.0978642 10.6552 -0.28521 13.1507 0.212315C15.6462 0.709839 17.8921 2.05719 19.5057 4.02483C21.1193 5.99247 22.0008 8.45868 22 11.0033C21.9968 13.9223 20.8358 16.7207 18.7717 18.7846ZM10.4198 1.15242C7.90756 1.30025 5.54675 2.4024 3.82032 4.23341C2.09389 6.06442 1.13232 8.48589 1.13232 11.0025C1.13232 13.519 2.09389 15.9405 3.82032 17.7715C5.54675 19.6025 7.90756 20.7047 10.4198 20.8525V17.1187C8.89363 16.9796 7.47459 16.2751 6.44129 15.1434C5.408 14.0116 4.83511 12.5345 4.83511 11.002C4.83511 9.46955 5.408 7.99243 6.44129 6.8607C7.47459 5.72898 8.89363 5.02441 10.4198 4.88535V1.15242ZM10.9878 5.99771C9.8284 5.99688 8.70462 6.39813 7.80796 7.13308C6.9113 7.86802 6.29728 8.89118 6.07051 10.0282C5.84375 11.1651 6.0183 12.3456 6.56441 13.3683C7.11052 14.3909 7.99438 15.1926 9.06537 15.6366C10.1364 16.0806 11.3282 16.1395 12.4377 15.8031C13.5472 15.4668 14.5057 14.7561 15.15 13.7922C15.7942 12.8283 16.0841 11.6708 15.9705 10.517C15.8569 9.36321 15.3466 8.28454 14.5267 7.46484C13.5887 6.52626 12.3164 5.99854 10.9895 5.99771H10.9878ZM18.1609 4.23567C16.4343 2.40468 14.0733 1.30252 11.561 1.1546V4.88622C13.0872 5.02528 14.5062 5.72985 15.5395 6.86158C16.5728 7.9933 17.1457 9.47042 17.1457 11.0029C17.1457 12.5354 16.5728 14.0125 15.5395 15.1442C14.5062 16.276 13.0872 16.9805 11.561 17.1196V20.8525C13.4349 20.7421 15.2385 20.0994 16.76 18.9999C18.2814 17.9004 19.4577 16.3896 20.1506 14.645C20.8435 12.9004 21.0244 10.9943 20.6719 9.15054C20.3195 7.30674 19.4484 5.60173 18.1609 4.23567Z" fill="url(#paint0_linear_332_1244)"/>
<defs>
<linearGradient id="paint0_linear_332_1244" x1="3.212" y1="3.212" x2="18.766" y2="18.766" gradientUnits="userSpaceOnUse">
<stop offset="0.005" stop-color="#2D9CFD"/>
<stop offset="1" stop-color="#37DAFD"/>
</linearGradient>
</defs>
</svg>
