<svg width="100" height="20" viewBox="0 0 100 20" fill="none" xmlns="http://www.w3.org/2000/svg">
<path d="M79.7319 2.84706C78.661 1.79854 77.3653 1.00777 75.9432 0.534766C74.5211 0.0617646 73.01 -0.0810327 71.5244 0.117218C70.0389 0.315468 68.618 0.849553 67.3697 1.67893C66.1214 2.50831 65.0785 3.61118 64.3201 4.90382C63.4638 6.41325 63.0184 8.12088 63.0283 9.85625C63.0055 11.1287 63.2453 12.3922 63.7329 13.5677C64.2205 14.7432 64.9453 15.8056 65.862 16.6883C66.7711 17.6067 67.8574 18.3308 69.055 18.8164C70.2525 19.302 71.5363 19.5391 72.8283 19.5133C74.1098 19.521 75.38 19.2741 76.5652 18.7869C77.7505 18.2998 78.8271 17.5821 79.7328 16.6755C80.6384 15.7689 81.355 14.6915 81.8408 13.5057C82.3267 12.3199 82.5723 11.0495 82.5632 9.76807C82.594 8.48158 82.3583 7.20263 81.8711 6.01158C81.3838 4.82053 80.6555 3.74313 79.7319 2.84706ZM79.6238 13.795C78.9451 14.9917 77.9527 15.9805 76.7536 16.6549C75.5371 17.3524 74.1574 17.7148 72.7552 17.7051C71.7247 17.7082 70.7037 17.5068 69.7515 17.1125C68.7993 16.7182 67.9349 16.1389 67.2082 15.4081C66.4815 14.6774 65.907 13.8097 65.518 12.8553C65.129 11.9009 64.9333 10.8789 64.9421 9.84831C64.9229 8.43033 65.2792 7.03251 65.9748 5.79675C66.4852 4.89482 67.1699 4.10348 67.9892 3.46886C68.8084 2.83423 69.7458 2.36902 70.7466 2.10032C71.7475 1.83162 72.7918 1.76481 73.8188 1.90379C74.8457 2.04277 75.8347 2.38476 76.7282 2.90982C77.9404 3.59064 78.9457 4.58697 79.6373 5.79306C80.329 6.99915 80.6812 8.37001 80.6566 9.76013C80.6728 11.1725 80.3166 12.5641 79.6238 13.795Z" fill="#F6F9FE"/>
<path d="M99.9951 13.7926V13.8466C100.003 14.606 99.8423 15.3577 99.5256 16.0479C99.2089 16.7381 98.7437 17.3498 98.1632 17.8394C96.8346 18.9189 95.158 19.477 93.4475 19.4092C92.0948 19.4201 90.7549 19.1481 89.5135 18.6108C88.2947 18.069 87.1895 17.3013 86.2563 16.3483L87.6069 15.0438C88.3598 15.8372 89.2668 16.4684 90.2724 16.8988C91.278 17.3291 92.3608 17.5494 93.4546 17.5463C96.2295 17.5463 98.1155 16.0559 98.1155 13.8466V13.7926C98.147 13.3862 98.0803 12.9782 97.921 12.6029C97.7617 12.2277 97.5145 11.8962 97.2003 11.6366C95.9839 10.8239 94.6042 10.2875 93.1583 10.0652C91.527 9.83175 89.9698 9.23148 88.6039 8.30953C88.1167 7.92467 87.7282 7.42928 87.4705 6.86438C87.2129 6.29949 87.0935 5.68134 87.1223 5.06113V5.01029C87.1142 4.35486 87.2617 3.70685 87.5529 3.11957C87.8351 2.51951 88.239 1.98467 88.7389 1.54899C89.905 0.6093 91.3646 0.10984 92.862 0.1381C93.9561 0.14936 95.0402 0.347645 96.0675 0.724382C97.0406 1.10779 97.9496 1.6374 98.7629 2.29496L97.5777 3.73207C96.2501 2.6326 94.5856 2.02185 92.862 2.00181C91.8248 1.96927 90.8103 2.30914 90.0021 2.95989C89.6947 3.20725 89.4455 3.5191 89.272 3.87342C89.0984 4.22773 89.0049 4.61583 88.9979 5.01029V5.06352C88.9668 5.40256 89.0221 5.74397 89.1586 6.05585C89.2952 6.36774 89.5086 6.63992 89.7788 6.847C90.9291 7.58519 92.2252 8.06644 93.5785 8.25789C95.8697 8.76394 97.4053 9.37564 98.4293 10.2273C98.9478 10.6603 99.359 11.2076 99.6307 11.8262C99.9023 12.4447 100.027 13.1178 99.9951 13.7926Z" fill="#F6F9FE"/>
<path d="M57.4317 4.44467C56.4384 2.905 54.9499 1.74994 53.2118 1.17006C51.2468 0.631834 49.2094 0.405315 47.1742 0.498768H43.3252V19.0469H49.2317C51.0839 19.1398 52.9318 18.7949 54.6259 18.0404C55.9503 17.3259 57.0366 16.2395 57.7511 14.9151C58.5747 13.4125 58.9887 11.7196 58.9515 10.0064C59.0055 8.04307 58.4766 6.10774 57.4317 4.44467ZM55.8707 14.3591C55.0865 15.5306 53.9238 16.3972 52.577 16.8138C50.8292 17.2103 49.0361 17.3706 47.2457 17.2905H45.1007V2.3172H46.4155C48.3435 2.2398 50.2732 2.41798 52.1544 2.84708C53.63 3.26238 54.9119 4.18478 55.7746 5.45199C56.6672 6.80971 57.1201 8.40931 57.0719 10.0334C57.1177 11.5635 56.6989 13.0716 55.8707 14.3591Z" fill="#F6F9FE"/>
<path d="M2.99534 5.78642C2.2917 7.01642 1.93222 8.41317 1.95465 9.83003C1.92759 10.8835 2.12086 11.931 2.5221 12.9054C2.92334 13.8799 3.52368 14.7597 4.28468 15.4887C5.06149 16.2407 5.9814 16.8291 6.98985 17.219C7.99831 17.6089 9.0748 17.7923 10.1555 17.7584C11.4017 17.7753 12.6356 17.5091 13.764 16.9799C14.8924 16.4506 15.8859 15.6721 16.6697 14.703L18.1354 15.8152C17.2167 16.9885 16.0301 17.9243 14.6749 18.5441C13.2194 19.202 11.6366 19.5305 10.0395 19.5061C8.59853 19.5745 7.16056 19.319 5.83139 18.7584C4.50221 18.1977 3.31564 17.3462 2.35899 16.2664C0.784775 14.432 -0.0545653 12.0798 0.00275336 9.6632C-0.0246887 8.38493 0.215572 7.11506 0.708104 5.93517C1.20064 4.75529 1.93453 3.69148 2.86265 2.81211C3.80787 1.89401 4.92767 1.17487 6.15577 0.697275C7.38387 0.21968 8.69531 -0.00666811 10.0125 0.031627C11.6328 0.00897678 13.2366 0.359634 14.6996 1.05643C16.0651 1.72052 17.2449 2.71233 18.1339 3.94336L16.6681 5.06429C15.9027 4.0482 14.9074 3.22793 13.7637 2.6707C12.5994 2.12129 11.3253 1.84393 10.0379 1.85959C8.59678 1.84838 7.17809 2.21661 5.92436 2.9273C4.70753 3.59807 3.69531 4.58615 2.99534 5.78642Z" fill="#F6F9FE"/>
<path d="M36.7474 0.498779H38.5476V11.658C38.5476 13.7325 37.7235 15.722 36.2566 17.1889C34.7897 18.6558 32.8002 19.4799 30.7257 19.4799C28.6512 19.4799 26.6617 18.6558 25.1948 17.1889C23.7279 15.722 22.9038 13.7325 22.9038 11.658V0.498779H24.696V11.658C24.696 13.2561 25.3309 14.7888 26.4609 15.9188C27.591 17.0489 29.1236 17.6837 30.7217 17.6837C32.3198 17.6837 33.8525 17.0489 34.9825 15.9188C36.1126 14.7888 36.7474 13.2561 36.7474 11.658V0.498779Z" fill="#F6F9FE"/>
</svg>
