<svg width="70" height="68" viewBox="0 0 70 68" fill="none" xmlns="http://www.w3.org/2000/svg">
<path d="M70 33.9991C70 37.4616 63.7965 39.9011 62.782 43.0256C61.7298 46.264 65.2784 51.8772 63.3162 54.5717C61.3356 57.2943 54.8877 55.6441 52.1651 57.6257C49.4696 59.5869 49.058 66.2388 45.8206 67.2869C42.6961 68.3014 38.4665 63.1945 34.9999 63.1945C31.5333 63.1945 27.3075 68.3014 24.1792 67.2869C20.9408 66.2347 20.5292 59.5831 17.8337 57.6257C15.1121 55.6451 8.66419 57.2953 6.68258 54.5727C4.72137 51.8772 8.26896 46.2639 7.21777 43.0266C6.20354 39.9021 0 37.4626 0 34.0001C0 30.5375 6.20354 28.098 7.21797 24.9736C8.26916 21.736 4.72157 16.1228 6.68278 13.4274C8.66439 10.7048 15.1123 12.355 17.8349 10.3744C20.5294 8.41322 20.941 1.76032 24.1794 0.71317C27.3039 -0.301264 31.5335 4.80564 35.0001 4.80564C38.4665 4.80564 42.6925 -0.301264 45.8208 0.71317C49.0584 1.76436 49.4708 8.41705 52.1653 10.3744C54.8879 12.356 61.3358 10.7058 63.3174 13.4274C65.2786 16.123 61.73 21.7362 62.7822 24.9736C63.7965 28.0968 70 30.5363 70 33.9991Z" fill="#4E94EE" fill-opacity="0.2"/>
<path d="M31.943 45.8988C30.918 45.9003 29.9347 45.4931 29.2107 44.7675L20.5948 36.1515C19.0853 34.6425 19.0849 32.1956 20.5937 30.6862C22.1028 29.1767 24.5497 29.1763 26.0591 30.6852L31.9428 36.568L43.9469 24.5648C45.4562 23.0554 47.9033 23.0552 49.4127 24.5644C50.9222 26.0736 50.9224 28.5208 49.4131 30.0302L34.6759 44.7675C33.9518 45.4933 32.9681 45.9005 31.943 45.8988Z" fill="#4E94EE"/>
</svg>
