<svg width="50" height="50" viewBox="0 0 60 60" fill="none" xmlns="http://www.w3.org/2000/svg">
<g filter="url(#filter0_d_332_1182)">
<rect x="48" y="7" width="40" height="40" rx="20" transform="rotate(90 48 7)" fill="#636D8F" fill-opacity="0.2" shape-rendering="crispEdges"/>
</g>
<path d="M31.7594 34.4998C31.9539 34.494 32.1386 34.4127 32.2742 34.273L35.2697 31.277C35.3396 31.2073 35.3951 31.1247 35.433 31.0335C35.4709 30.9424 35.4904 30.8447 35.4904 30.746C35.4904 30.6473 35.4709 30.5496 35.433 30.4584C35.3951 30.3673 35.3396 30.2845 35.2697 30.2149L32.2742 27.2188C32.2057 27.1445 32.1229 27.085 32.0308 27.0436C31.9386 27.0022 31.8391 26.9798 31.7381 26.9779C31.6371 26.976 31.5368 26.9945 31.4431 27.0324C31.3495 27.0703 31.2645 27.1267 31.1932 27.1983C31.1219 27.2698 31.0659 27.3551 31.0284 27.4489C30.9909 27.5428 30.9728 27.6432 30.9751 27.7442C30.9775 27.8452 31.0002 27.9447 31.042 28.0367C31.0838 28.1287 31.1437 28.2112 31.2182 28.2794L32.9324 29.994L21.2621 29.994C21.0664 29.9983 20.8801 30.0791 20.7431 30.2191C20.6062 30.3591 20.5295 30.5472 20.5295 30.743C20.5295 30.9389 20.6062 31.1269 20.7431 31.2669C20.8801 31.4069 21.0664 31.4877 21.2621 31.492L32.9383 31.492L31.2182 33.2124C31.1097 33.3174 31.0354 33.4527 31.0051 33.6006C30.9748 33.7485 30.9899 33.9022 31.0484 34.0414C31.1069 34.1805 31.2061 34.2988 31.333 34.3806C31.4598 34.4624 31.6085 34.504 31.7594 34.4998ZM24.259 27.0081C24.4084 27.0081 24.5543 26.9634 24.6781 26.8798C24.8018 26.7962 24.8978 26.6776 24.9536 26.5391C25.0094 26.4005 25.0225 26.2485 24.9913 26.1024C24.9601 25.9563 24.8859 25.8229 24.7783 25.7193L23.0641 24.0062L34.7344 24.0062C34.8341 24.0084 34.9333 23.9907 35.026 23.954C35.1188 23.9173 35.2033 23.8625 35.2746 23.7928C35.3459 23.723 35.4026 23.6396 35.4413 23.5477C35.48 23.4557 35.4999 23.357 35.4999 23.2572C35.4999 23.1574 35.48 23.0587 35.4413 22.9667C35.4026 22.8747 35.3459 22.7914 35.2746 22.7216C35.2033 22.6519 35.1188 22.597 35.026 22.5604C34.9333 22.5237 34.8341 22.506 34.7344 22.5082L23.0582 22.5082L24.7783 20.7878C24.8499 20.7185 24.907 20.6357 24.9462 20.5442C24.9855 20.4526 25.006 20.3541 25.0067 20.2545C25.0075 20.1548 24.9883 20.0561 24.9504 19.964C24.9125 19.8718 24.8566 19.7882 24.7859 19.7179C24.7153 19.6477 24.6314 19.5922 24.5391 19.5548C24.4468 19.5174 24.3479 19.4988 24.2483 19.5C24.1487 19.5013 24.0504 19.5225 23.959 19.5622C23.8677 19.602 23.7852 19.6595 23.7164 19.7315L20.7209 22.7233C20.651 22.7929 20.5955 22.8756 20.5576 22.9667C20.5197 23.0578 20.5002 23.1556 20.5002 23.2542C20.5002 23.3529 20.5197 23.4507 20.5576 23.5418C20.5955 23.6329 20.651 23.7157 20.7209 23.7853L23.7164 26.7814C23.7869 26.8538 23.8713 26.9113 23.9645 26.9502C24.0578 26.9892 24.158 27.0089 24.259 27.0081Z" fill="#4E94EE"/>
<defs>
<filter id="filter0_d_332_1182" x="0" y="0" width="60" height="60" filterUnits="userSpaceOnUse" color-interpolation-filters="sRGB">
<feFlood flood-opacity="0" result="BackgroundImageFix"/>
<feColorMatrix in="SourceAlpha" type="matrix" values="0 0 0 0 0 0 0 0 0 0 0 0 0 0 0 0 0 0 127 0" result="hardAlpha"/>
<feOffset dx="2" dy="3"/>
<feGaussianBlur stdDeviation="5"/>
<feComposite in2="hardAlpha" operator="out"/>
<feColorMatrix type="matrix" values="0 0 0 0 0.00784314 0 0 0 0 0.0235294 0 0 0 0 0.0784314 0 0 0 0.1 0"/>
<feBlend mode="normal" in2="BackgroundImageFix" result="effect1_dropShadow_332_1182"/>
<feBlend mode="normal" in="SourceGraphic" in2="effect1_dropShadow_332_1182" result="shape"/>
</filter>
</defs>
</svg>
