<svg width="70" height="70" viewBox="0 0 70 70" fill="none" xmlns="http://www.w3.org/2000/svg">
<path d="M34.9998 37.9167C34.6168 37.9168 34.2374 37.8414 33.8835 37.6949C33.5296 37.5484 33.2081 37.3335 32.9372 37.0627C32.6663 36.7918 32.4515 36.4702 32.305 36.1163C32.1584 35.7624 32.083 35.3831 32.0831 35V26.25C32.0831 25.4765 32.3904 24.7346 32.9374 24.1876C33.4844 23.6407 34.2263 23.3334 34.9998 23.3334C35.7734 23.3334 36.5152 23.6407 37.0622 24.1876C37.6092 24.7346 37.9165 25.4765 37.9165 26.25V35C37.9166 35.3831 37.8412 35.7624 37.6947 36.1163C37.5481 36.4702 37.3333 36.7918 37.0624 37.0627C36.7916 37.3335 36.47 37.5484 36.1161 37.6949C35.7622 37.8414 35.3829 37.9168 34.9998 37.9167ZM34.9998 46.6667C34.6157 46.6704 34.2348 46.5975 33.8792 46.4523C33.5237 46.307 33.2007 46.0923 32.9291 45.8208C32.6575 45.5492 32.4428 45.2262 32.2976 44.8706C32.1523 44.515 32.0794 44.1341 32.0831 43.75C32.0939 42.9778 32.396 42.2381 32.929 41.6792C33.2072 41.4154 33.5336 41.2074 33.8903 41.0667C34.4217 40.8439 35.0071 40.7832 35.5729 40.8922C36.1388 41.0012 36.6598 41.275 37.0704 41.6792C37.6029 42.2385 37.905 42.9779 37.9165 43.75C37.9202 44.1341 37.8473 44.515 37.7021 44.8706C37.5568 45.2262 37.3421 45.5492 37.0705 45.8208C36.7989 46.0923 36.4759 46.307 36.1204 46.4523C35.7648 46.5975 35.3839 46.6704 34.9998 46.6667Z" fill="#4E94EE"/>
<path d="M35.0002 5.83337C27.3591 5.85308 20.0298 8.86556 14.5835 14.225V8.75004C14.5835 7.97649 14.2762 7.23463 13.7293 6.68765C13.1823 6.14066 12.4404 5.83337 11.6669 5.83337C10.8933 5.83337 10.1514 6.14066 9.60446 6.68765C9.05748 7.23463 8.75019 7.97649 8.75019 8.75004V21.875C8.75009 22.2581 8.82546 22.6374 8.972 22.9913C9.11855 23.3452 9.33338 23.6668 9.60424 23.9377C9.8751 24.2085 10.1967 24.4234 10.5506 24.5699C10.9045 24.7164 11.2838 24.7918 11.6669 24.7917H24.7919C25.5654 24.7917 26.3073 24.4844 26.8542 23.9374C27.4012 23.3905 27.7085 22.6486 27.7085 21.875C27.7085 21.1015 27.4012 20.3596 26.8542 19.8126C26.3073 19.2657 25.5654 18.9584 24.7919 18.9584H18.1373C21.3408 15.5675 25.4893 13.2173 30.0447 12.2128C34.6 11.2082 39.3522 11.5956 43.6847 13.3246C48.0173 15.0537 51.7304 18.0446 54.3424 21.9096C56.9545 25.7746 58.3449 30.3352 58.3335 35C58.3335 35.7736 58.6408 36.5155 59.1878 37.0624C59.7348 37.6094 60.4766 37.9167 61.2502 37.9167C62.0237 37.9167 62.7656 37.6094 63.3126 37.0624C63.8596 36.5155 64.1669 35.7736 64.1669 35C64.158 27.2673 61.0823 19.8538 55.6144 14.3859C50.1465 8.91797 42.733 5.84222 35.0002 5.83337ZM58.3335 45.2084H45.2085C44.435 45.2084 43.6931 45.5157 43.1461 46.0626C42.5991 46.6096 42.2919 47.3515 42.2919 48.125C42.2919 48.8986 42.5991 49.6405 43.1461 50.1874C43.6931 50.7344 44.435 51.0417 45.2085 51.0417H51.8631C48.6596 54.4326 44.5111 56.7828 39.9557 57.7873C35.4003 58.7919 30.6482 58.4045 26.3156 56.6755C21.9831 54.9464 18.27 51.9554 15.658 48.0905C13.0459 44.2255 11.6554 39.6649 11.6669 35C11.6669 34.2265 11.3596 33.4846 10.8126 32.9376C10.2656 32.3907 9.52374 32.0834 8.75019 32.0834C7.97664 32.0834 7.23478 32.3907 6.68779 32.9376C6.14081 33.4846 5.83352 34.2265 5.83352 35C5.8258 40.7474 7.51855 46.3686 10.6987 51.156C13.8788 55.9433 18.4041 59.6829 23.705 61.9039C29.0058 64.1249 34.8453 64.7281 40.4882 63.6375C46.1311 62.5469 51.3253 59.8113 55.4169 55.7751V61.25C55.4169 62.0236 55.7241 62.7655 56.2711 63.3124C56.8181 63.8594 57.56 64.1667 58.3335 64.1667C59.1071 64.1667 59.8489 63.8594 60.3959 63.3124C60.9429 62.7655 61.2502 62.0236 61.2502 61.25V48.125C61.2503 47.742 61.1749 47.3627 61.0284 47.0088C60.8818 46.6549 60.667 46.3333 60.3961 46.0624C60.1253 45.7916 59.8037 45.5767 59.4498 45.4302C59.0959 45.2836 58.7166 45.2083 58.3335 45.2084Z" fill="#4E94EE" fill-opacity="0.4"/>
</svg>
