<svg width="60" height="60" viewBox="0 0 60 60" fill="none" xmlns="http://www.w3.org/2000/svg">
<g filter="url(#filter0_d_332_1256)">
<rect x="8" y="7" width="55" height="54" rx="20" fill="#636D8F" fill-opacity="0.2" shape-rendering="crispEdges"/>
</g>
<path d="M35.4997 23.2406C35.4939 23.0461 35.4125 22.8614 35.2729 22.7258L32.2768 19.7303C32.2072 19.6604 32.1245 19.6049 32.0334 19.567C31.9423 19.5291 31.8445 19.5096 31.7459 19.5096C31.6472 19.5096 31.5494 19.5291 31.4583 19.567C31.3672 19.6049 31.2844 19.6604 31.2148 19.7303L28.2186 22.7258C28.1444 22.7943 28.0849 22.8771 28.0435 22.9692C28.0021 23.0614 27.9797 23.1609 27.9778 23.2619C27.9759 23.3629 27.9944 23.4632 28.0323 23.5569C28.0702 23.6505 28.1265 23.7355 28.1981 23.8068C28.2697 23.8781 28.355 23.9341 28.4488 23.9716C28.5426 24.0091 28.6431 24.0272 28.7441 24.0249C28.8451 24.0225 28.9446 23.9998 29.0366 23.958C29.1285 23.9162 29.2111 23.8563 29.2793 23.7818L30.9939 22.0676L30.9938 33.7379C30.9982 33.9336 31.0789 34.1199 31.2189 34.2569C31.3589 34.3938 31.5471 34.4705 31.7429 34.4705C31.9388 34.4705 32.1268 34.3938 32.2668 34.2569C32.4068 34.1199 32.4876 33.9336 32.4919 33.7379L32.4919 22.0617L34.2123 23.7818C34.3173 23.8903 34.4526 23.9646 34.6005 23.9949C34.7484 24.0252 34.902 24.0101 35.0412 23.9516C35.1804 23.8931 35.2987 23.7939 35.3805 23.667C35.4623 23.5402 35.5039 23.3915 35.4997 23.2406ZM28.008 30.741C28.008 30.5916 27.9633 30.4457 27.8797 30.3219C27.7961 30.1982 27.6775 30.1022 27.539 30.0464C27.4004 29.9906 27.2483 29.9775 27.1023 30.0087C26.9562 30.0399 26.8228 30.1141 26.7192 30.2217L25.0061 31.9359L25.0061 20.2656C25.0083 20.1659 24.9905 20.0667 24.9539 19.974C24.9172 19.8812 24.8624 19.7967 24.7926 19.7254C24.7229 19.6541 24.6395 19.5974 24.5476 19.5587C24.4556 19.52 24.3568 19.5001 24.2571 19.5001C24.1573 19.5001 24.0585 19.52 23.9666 19.5587C23.8746 19.5974 23.7913 19.6541 23.7215 19.7254C23.6517 19.7967 23.5969 19.8812 23.5603 19.974C23.5236 20.0667 23.5059 20.1659 23.5081 20.2656L23.5081 31.9418L21.7877 30.2217C21.7184 30.1501 21.6356 30.093 21.544 30.0538C21.4525 30.0145 21.354 29.994 21.2543 29.9933C21.1547 29.9925 21.056 30.0117 20.9639 30.0496C20.8717 30.0875 20.7881 30.1434 20.7178 30.2141C20.6476 30.2847 20.5921 30.3686 20.5547 30.4609C20.5173 30.5532 20.4987 30.6521 20.4999 30.7517C20.5012 30.8513 20.5224 30.9496 20.5621 31.041C20.6019 31.1323 20.6594 31.2148 20.7314 31.2836L23.7231 34.2791C23.7928 34.349 23.8754 34.4045 23.9666 34.4424C24.0577 34.4803 24.1554 34.4998 24.2541 34.4998C24.3528 34.4998 24.4505 34.4803 24.5417 34.4424C24.6328 34.4045 24.7156 34.349 24.7852 34.2791L27.7813 31.2836C27.8537 31.2131 27.9111 31.1287 27.9501 31.0355C27.9891 30.9422 28.0088 30.842 28.008 30.741Z" fill="#4E94EE"/>
<defs>
<filter id="filter0_d_332_1256" x="0" y="0" width="60" height="60" filterUnits="userSpaceOnUse" color-interpolation-filters="sRGB">
<feFlood flood-opacity="0" result="BackgroundImageFix"/>
<feColorMatrix in="SourceAlpha" type="matrix" values="0 0 0 0 0 0 0 0 0 0 0 0 0 0 0 0 0 0 127 0" result="hardAlpha"/>
<feOffset dx="2" dy="3"/>
<feGaussianBlur stdDeviation="5"/>
<feComposite in2="hardAlpha" operator="out"/>
<feColorMatrix type="matrix" values="0 0 0 0 0.00784314 0 0 0 0 0.0235294 0 0 0 0 0.0784314 0 0 0 0.1 0"/>
<feBlend mode="normal" in2="BackgroundImageFix" result="effect1_dropShadow_332_1256"/>
<feBlend mode="normal" in="SourceGraphic" in2="effect1_dropShadow_332_1256" result="shape"/>
</filter>
</defs>
</svg>
