<svg width="16" height="16" viewBox="0 0 16 16" fill="none" xmlns="http://www.w3.org/2000/svg">
<path d="M4.24049 0.500162C4.04594 0.505965 3.86128 0.587348 3.72565 0.726982L0.730191 3.72305C0.660239 3.79266 0.60473 3.87534 0.566852 3.96648C0.528974 4.05761 0.509475 4.15533 0.509475 4.25403C0.509475 4.35272 0.528974 4.45044 0.566852 4.54157C0.60473 4.63271 0.660239 4.71548 0.730191 4.78509L3.72565 7.78124C3.79416 7.85548 3.87697 7.91502 3.96911 7.95642C4.06124 7.99782 4.1608 8.02016 4.26179 8.02208C4.36278 8.024 4.46311 8.00545 4.55676 7.96758C4.6504 7.92971 4.73541 7.87333 4.80669 7.80175C4.87796 7.73016 4.93402 7.64487 4.9715 7.55105C5.00897 7.45723 5.02708 7.3568 5.02475 7.2558C5.02241 7.1548 4.99967 7.05531 4.95789 6.96333C4.91612 6.87134 4.85618 6.7888 4.78167 6.72059L3.06747 5.00603H14.7378C14.9335 5.00172 15.1198 4.92094 15.2567 4.78094C15.3937 4.64094 15.4703 4.45282 15.4703 4.25697C15.4703 4.06112 15.3937 3.87308 15.2567 3.73308C15.1198 3.59309 14.9335 3.5123 14.7378 3.50799H3.06162L4.78167 1.78755C4.8902 1.6826 4.9645 1.54732 4.99481 1.3994C5.02512 1.25148 5.01003 1.09784 4.95152 0.958647C4.893 0.819455 4.7938 0.701182 4.66692 0.619368C4.54004 0.537554 4.3914 0.496004 4.24049 0.500162ZM11.7408 7.99189C11.5915 7.99191 11.4456 8.03658 11.3218 8.12018C11.1981 8.20377 11.1021 8.32238 11.0463 8.46093C10.9905 8.59947 10.9773 8.75155 11.0086 8.89761C11.0398 9.04368 11.114 9.17708 11.2216 9.28066L12.9358 10.9938H1.26551C1.16578 10.9916 1.06662 11.0093 0.973847 11.046C0.881071 11.0827 0.79655 11.1375 0.725244 11.2072C0.653938 11.277 0.597283 11.3604 0.558603 11.4523C0.519924 11.5443 0.5 11.643 0.5 11.7428C0.5 11.8426 0.519924 11.9413 0.558603 12.0333C0.597283 12.1253 0.653938 12.2086 0.725244 12.2784C0.79655 12.3481 0.881071 12.403 0.973847 12.4396C1.06662 12.4763 1.16578 12.494 1.26551 12.4918H12.9417L11.2216 14.2122C11.15 14.2815 11.0929 14.3643 11.0537 14.4558C11.0144 14.5474 10.9938 14.6459 10.9931 14.7455C10.9924 14.8452 11.0116 14.9439 11.0495 15.036C11.0874 15.1282 11.1433 15.2118 11.2139 15.2821C11.2846 15.3523 11.3685 15.4078 11.4608 15.4452C11.5531 15.4826 11.652 15.5012 11.7516 15.5C11.8512 15.4987 11.9495 15.4775 12.0408 15.4378C12.1322 15.398 12.2147 15.3405 12.2835 15.2685L15.2789 12.2767C15.3489 12.2071 15.4044 12.1244 15.4423 12.0333C15.4802 11.9422 15.4997 11.8444 15.4997 11.7458C15.4997 11.6471 15.4802 11.5493 15.4423 11.4582C15.4044 11.3671 15.3489 11.2843 15.2789 11.2147L12.2835 8.21862C12.213 8.14616 12.1286 8.08873 12.0353 8.04976C11.9421 8.01079 11.8419 7.99111 11.7408 7.99189Z" fill="#636D8F"/>
</svg>
